<svg version="1.1" id="Layer_1" xmlns="http://www.w3.org/2000/svg" xmlns:xlink="http://www.w3.org/1999/xlink" x="0px" y="0px"
	 width="100%" viewBox="0 0 1920 1080" enable-background="new 0 0 1920 1080" xml:space="preserve">
<path fill="#1E2122" opacity="1.000000" stroke="none" 
	d="
M1520.000000,1081.000000 
	C1013.333435,1081.000000 507.166840,1081.000000 1.000204,1081.000000 
	C1.000136,721.000183 1.000136,361.000305 1.000068,1.000349 
	C640.999695,1.000232 1280.999390,1.000232 1920.999268,1.000116 
	C1920.999512,360.999664 1920.999512,720.999329 1920.999756,1080.999512 
	C1787.500000,1081.000000 1654.000000,1081.000000 1520.000000,1081.000000 
M115.381752,667.105164 
	C162.993362,687.338562 208.074951,683.582703 250.600784,653.283264 
	C257.607727,648.290894 260.318359,642.303528 260.213013,633.870483 
	C259.898865,608.708374 260.129669,583.539795 260.089172,558.373840 
	C260.066803,544.462341 253.774582,538.186462 239.917328,538.167725 
	C220.584549,538.141602 201.251587,538.129211 181.918991,538.196777 
	C179.105927,538.206604 176.229279,538.400574 173.494644,539.012512 
	C165.455612,540.811401 160.581055,548.095581 161.734222,556.195496 
	C162.924088,564.553162 169.605042,569.695923 179.919815,569.799683 
	C193.418106,569.935425 206.918762,569.837036 220.418396,569.839294 
	C222.181778,569.839600 223.945145,569.839294 226.093033,569.839294 
	C226.093033,589.672913 226.153152,608.809082 225.967194,627.942871 
	C225.953812,629.320679 224.440002,631.139465 223.128418,631.983032 
	C179.924225,659.771606 122.870621,648.337036 93.837677,606.156189 
	C65.237312,564.603821 67.558182,510.723511 100.353645,472.341583 
	C124.401115,444.197784 155.546112,434.848053 191.632721,440.534637 
	C206.917526,442.943237 219.625580,450.562317 231.502533,460.089478 
	C234.741791,462.687897 238.882034,464.891479 242.908981,465.622345 
	C250.428802,466.987061 257.449585,462.451141 260.187164,455.750702 
	C262.958496,448.967743 260.681885,441.400604 254.294098,436.155121 
	C233.776550,419.306732 210.629852,409.297424 183.843369,407.428223 
	C144.451324,404.679382 109.871437,415.645721 81.533691,443.264282 
	C49.419621,474.563324 36.309124,513.363098 40.912796,557.712280 
	C46.027031,606.979980 70.159927,643.940247 115.381752,667.105164 
M616.782104,408.393280 
	C600.564636,410.400391 585.377563,415.281158 571.303406,423.790894 
	C538.948669,443.353790 533.932312,480.330719 547.882507,507.902252 
	C557.778259,527.460571 575.020996,538.397217 594.919739,545.867126 
	C609.904541,551.492432 625.757446,552.519287 641.342529,555.032288 
	C655.746277,557.354858 668.885254,562.324890 679.428955,573.100098 
	C696.318726,590.360657 698.268127,623.430115 670.054199,638.305176 
	C651.393982,648.143250 631.836182,649.387268 611.820007,645.394531 
	C591.838135,641.408569 574.964417,632.416870 565.017761,613.183899 
	C563.236267,609.739197 558.886841,607.122009 555.148743,605.303345 
	C549.043396,602.332886 540.297913,604.800781 535.419128,609.921326 
	C531.124695,614.428467 530.759155,619.607361 534.192993,627.050293 
	C540.057068,639.760986 548.723511,650.261536 560.320435,657.962769 
	C600.322388,684.527161 642.603271,686.609741 685.693176,667.113953 
	C724.242065,649.672791 738.505493,600.445862 716.686890,564.175171 
	C704.885132,544.556274 686.705200,533.645081 665.207642,528.332336 
	C651.362732,524.910828 637.018555,523.545654 622.942383,521.012939 
	C609.889832,518.664368 597.356506,514.960144 587.148315,505.784363 
	C570.609192,490.918152 570.072693,459.224091 594.779419,447.333191 
	C606.525513,441.679993 618.871277,439.686920 631.550171,439.376099 
	C652.083313,438.872742 670.488037,444.215820 684.044800,460.912262 
	C687.188049,464.783539 689.815002,469.071777 692.918945,472.977905 
	C698.711853,480.268158 709.028809,482.241974 716.236145,477.632080 
	C723.253296,473.143829 725.284302,464.628296 720.305603,455.974579 
	C709.018494,436.355865 693.389343,421.276398 671.904602,413.188416 
	C654.348267,406.579376 636.064270,406.415833 616.782104,408.393280 
M811.929504,673.500000 
	C811.929504,664.969055 811.929504,656.438049 811.929504,646.999329 
	C813.325195,648.263794 813.837585,648.665466 814.277222,649.135193 
	C838.731873,675.261230 868.635376,683.007202 902.591553,673.656372 
	C926.664062,667.027283 943.911255,651.185364 954.502808,628.604858 
	C967.468628,600.962585 968.973755,572.405457 956.774231,544.415466 
	C940.873657,507.933624 911.483887,490.173279 872.154907,488.972565 
	C830.640564,487.705139 794.667542,512.959045 782.319031,552.544373 
	C778.956482,563.323486 777.477051,575.081116 777.357666,586.413147 
	C776.836182,635.902832 777.125488,685.401123 777.156067,734.896301 
	C777.157593,737.382141 777.305725,739.898315 777.707397,742.347534 
	C778.791016,748.955750 782.943970,753.004211 789.135925,754.924500 
	C801.227539,758.674377 811.754456,750.953491 811.870361,737.993347 
	C812.059692,716.830383 811.926575,695.664612 811.929504,673.500000 
M1543.546021,493.001221 
	C1507.165405,481.951355 1471.926636,492.310242 1449.101685,522.650818 
	C1428.226929,550.399048 1424.375366,581.973450 1435.001343,614.617859 
	C1452.439575,668.190796 1510.974976,691.133667 1560.367310,670.152710 
	C1596.540405,654.786926 1615.605103,625.465210 1616.819702,586.057739 
	C1617.820068,553.601868 1617.112427,521.092834 1617.128052,488.607361 
	C1617.137939,467.949982 1617.191772,447.291656 1617.007080,426.635712 
	C1616.938232,418.943695 1612.214355,413.061707 1605.275269,411.013550 
	C1597.785400,408.802765 1589.497681,410.983398 1585.848877,417.414612 
	C1583.679932,421.237610 1582.630981,426.184845 1582.583496,430.642609 
	C1582.294678,457.794647 1582.438110,484.951233 1582.437378,512.106323 
	C1582.437378,514.003784 1582.437378,515.901184 1582.437378,517.798645 
	C1571.287231,506.428040 1558.929810,498.100220 1543.546021,493.001221 
M1299.834717,489.264343 
	C1298.019897,489.514099 1296.200073,489.732910 1294.390869,490.018341 
	C1268.110352,494.164856 1247.310547,506.933838 1233.110840,529.631348 
	C1218.598999,552.827881 1215.511475,578.135559 1220.671265,604.588440 
	C1225.468384,629.182495 1238.627808,648.333252 1259.672974,661.982056 
	C1276.384277,672.820129 1294.889282,677.578857 1314.641968,677.394958 
	C1337.263916,677.184448 1357.912598,670.479919 1376.248779,657.156433 
	C1383.879395,651.611755 1384.175293,642.698364 1377.347168,636.120667 
	C1371.130859,630.132324 1362.442505,629.980286 1354.082275,635.713440 
	C1328.906372,652.978088 1295.478760,652.475220 1272.368652,634.288086 
	C1259.815552,624.409119 1252.487183,611.451111 1250.116333,595.169800 
	C1252.613037,595.169800 1254.599365,595.169861 1256.585693,595.169800 
	C1297.085449,595.168030 1337.585205,595.200867 1378.084961,595.142151 
	C1389.444946,595.125732 1395.784302,588.902283 1394.745850,577.647644 
	C1393.741211,566.761841 1392.594971,555.662292 1389.524658,545.241760 
	C1383.408081,524.481873 1370.852173,508.369171 1351.250610,498.141388 
	C1335.304321,489.820831 1318.308228,488.161713 1299.834717,489.264343 
M1009.963318,608.491821 
	C1016.380981,632.857910 1030.241577,651.670288 1052.094971,664.325378 
	C1067.092407,673.010193 1083.385254,677.108826 1100.724609,677.336060 
	C1124.511353,677.647766 1146.016235,670.809692 1165.235474,656.912170 
	C1172.326660,651.784546 1172.770020,643.325378 1166.741699,636.938110 
	C1160.812622,630.656006 1151.533813,629.635742 1144.061523,634.825562 
	C1130.458252,644.273438 1115.470825,649.079651 1098.934570,648.094116 
	C1074.051270,646.611084 1055.138184,635.340454 1043.937500,612.649658 
	C1041.363159,607.434387 1040.133423,601.555420 1038.015381,595.169434 
	C1041.419434,595.169434 1043.393311,595.169434 1045.367188,595.169373 
	C1085.854614,595.167542 1126.342041,595.200500 1166.829468,595.140381 
	C1177.515503,595.124512 1184.352295,588.894043 1183.400513,579.024902 
	C1182.304077,567.656555 1181.188477,556.071289 1178.050049,545.164795 
	C1171.841309,523.588379 1158.523804,507.317108 1138.009277,497.226135 
	C1122.688354,489.689819 1106.452759,487.877045 1089.835327,489.270081 
	C1061.098145,491.679108 1037.958252,504.288422 1022.230896,528.902039 
	C1006.663696,553.265015 1004.003662,579.847656 1009.963318,608.491821 
M476.238403,636.777161 
	C489.540405,616.071838 493.158447,593.232605 490.291931,569.274780 
	C487.589966,546.692322 478.255402,527.163452 461.017151,511.894562 
	C437.766510,491.300140 410.231903,485.811310 380.385071,490.275696 
	C352.838226,494.396057 331.307556,508.350189 316.899506,532.436890 
	C305.443298,551.588928 302.267548,572.669922 304.408783,594.519592 
	C306.862549,619.558716 316.987061,640.975708 336.855255,657.040833 
	C353.929962,670.847229 373.721832,677.169006 395.588654,677.380188 
	C429.162170,677.704468 456.582123,665.726990 476.238403,636.777161 
M1802.349243,527.833801 
	C1787.903809,527.833801 1773.458252,527.833801 1758.377563,527.833801 
	C1758.377563,525.404053 1758.378784,523.615662 1758.377441,521.827332 
	C1758.367188,508.667755 1758.504028,495.505859 1758.298828,482.349335 
	C1758.134644,471.817535 1751.112671,464.867798 1741.157349,464.870728 
	C1731.624512,464.873535 1723.982178,472.428467 1723.840820,482.403442 
	C1723.663696,494.894318 1723.783325,507.389404 1723.775513,519.882690 
	C1723.774048,522.331177 1723.775391,524.779724 1723.775391,527.830933 
	C1721.401733,527.830933 1719.616943,527.830688 1717.832153,527.830994 
	C1704.838989,527.833069 1691.845337,527.760315 1678.852905,527.860413 
	C1668.015137,527.943970 1660.900513,534.831055 1660.899048,544.988464 
	C1660.897461,555.643616 1667.797852,562.614685 1678.829102,562.798584 
	C1688.154907,562.954163 1697.485352,562.835632 1706.813721,562.837402 
	C1712.267456,562.838501 1717.721313,562.837646 1723.775269,562.837646 
	C1723.775269,565.172913 1723.775146,566.955811 1723.775269,568.738708 
	C1723.776123,581.232056 1723.730347,593.725769 1723.814819,606.218567 
	C1723.832642,608.855591 1723.928833,611.608521 1724.674927,614.102844 
	C1727.106812,622.232788 1734.563232,626.706116 1743.331177,625.641602 
	C1751.751343,624.619324 1757.862549,618.666992 1758.113770,610.104919 
	C1758.513916,596.457458 1758.321045,582.792603 1758.376343,569.135071 
	C1758.384155,567.204285 1758.377441,565.273438 1758.377441,562.837708 
	C1760.878784,562.837708 1762.678589,562.837952 1764.478394,562.837646 
	C1777.304932,562.835632 1790.132324,562.924377 1802.957764,562.803467 
	C1813.705200,562.702209 1821.758301,555.164185 1821.770752,545.477417 
	C1821.783081,535.724487 1813.988403,528.281677 1802.349243,527.833801 
z"/>
<path fill="#5270FD" opacity="1.000000" stroke="none" 
	d="
M115.030029,666.976135 
	C70.159927,643.940247 46.027031,606.979980 40.912796,557.712280 
	C36.309124,513.363098 49.419621,474.563324 81.533691,443.264282 
	C109.871437,415.645721 144.451324,404.679382 183.843369,407.428223 
	C210.629852,409.297424 233.776550,419.306732 254.294098,436.155121 
	C260.681885,441.400604 262.958496,448.967743 260.187164,455.750702 
	C257.449585,462.451141 250.428802,466.987061 242.908981,465.622345 
	C238.882034,464.891479 234.741791,462.687897 231.502533,460.089478 
	C219.625580,450.562317 206.917526,442.943237 191.632721,440.534637 
	C155.546112,434.848053 124.401115,444.197784 100.353645,472.341583 
	C67.558182,510.723511 65.237312,564.603821 93.837677,606.156189 
	C122.870621,648.337036 179.924225,659.771606 223.128418,631.983032 
	C224.440002,631.139465 225.953812,629.320679 225.967194,627.942871 
	C226.153152,608.809082 226.093033,589.672913 226.093033,569.839294 
	C223.945145,569.839294 222.181778,569.839600 220.418396,569.839294 
	C206.918762,569.837036 193.418106,569.935425 179.919815,569.799683 
	C169.605042,569.695923 162.924088,564.553162 161.734222,556.195496 
	C160.581055,548.095581 165.455612,540.811401 173.494644,539.012512 
	C176.229279,538.400574 179.105927,538.206604 181.918991,538.196777 
	C201.251587,538.129211 220.584549,538.141602 239.917328,538.167725 
	C253.774582,538.186462 260.066803,544.462341 260.089172,558.373840 
	C260.129669,583.539795 259.898865,608.708374 260.213013,633.870483 
	C260.318359,642.303528 257.607727,648.290894 250.600784,653.283264 
	C208.074951,683.582703 162.993362,687.338562 115.030029,666.976135 
z"/>
<path fill="#FD9000" opacity="1.000000" stroke="none" 
	d="
M617.224121,408.323090 
	C636.064270,406.415833 654.348267,406.579376 671.904602,413.188416 
	C693.389343,421.276398 709.018494,436.355865 720.305603,455.974579 
	C725.284302,464.628296 723.253296,473.143829 716.236145,477.632080 
	C709.028809,482.241974 698.711853,480.268158 692.918945,472.977905 
	C689.815002,469.071777 687.188049,464.783539 684.044800,460.912262 
	C670.488037,444.215820 652.083313,438.872742 631.550171,439.376099 
	C618.871277,439.686920 606.525513,441.679993 594.779419,447.333191 
	C570.072693,459.224091 570.609192,490.918152 587.148315,505.784363 
	C597.356506,514.960144 609.889832,518.664368 622.942383,521.012939 
	C637.018555,523.545654 651.362732,524.910828 665.207642,528.332336 
	C686.705200,533.645081 704.885132,544.556274 716.686890,564.175171 
	C738.505493,600.445862 724.242065,649.672791 685.693176,667.113953 
	C642.603271,686.609741 600.322388,684.527161 560.320435,657.962769 
	C548.723511,650.261536 540.057068,639.760986 534.192993,627.050293 
	C530.759155,619.607361 531.124695,614.428467 535.419128,609.921326 
	C540.297913,604.800781 549.043396,602.332886 555.148743,605.303345 
	C558.886841,607.122009 563.236267,609.739197 565.017761,613.183899 
	C574.964417,632.416870 591.838135,641.408569 611.820007,645.394531 
	C631.836182,649.387268 651.393982,648.143250 670.054199,638.305176 
	C698.268127,623.430115 696.318726,590.360657 679.428955,573.100098 
	C668.885254,562.324890 655.746277,557.354858 641.342529,555.032288 
	C625.757446,552.519287 609.904541,551.492432 594.919739,545.867126 
	C575.020996,538.397217 557.778259,527.460571 547.882507,507.902252 
	C533.932312,480.330719 538.948669,443.353790 571.303406,423.790894 
	C585.377563,415.281158 600.564636,410.400391 617.224121,408.323090 
z"/>
<path fill="#5270FD" opacity="1.000000" stroke="none" 
	d="
M811.929504,674.000000 
	C811.926575,695.664612 812.059692,716.830383 811.870361,737.993347 
	C811.754456,750.953491 801.227539,758.674377 789.135925,754.924500 
	C782.943970,753.004211 778.791016,748.955750 777.707397,742.347534 
	C777.305725,739.898315 777.157593,737.382141 777.156067,734.896301 
	C777.125488,685.401123 776.836182,635.902832 777.357666,586.413147 
	C777.477051,575.081116 778.956482,563.323486 782.319031,552.544373 
	C794.667542,512.959045 830.640564,487.705139 872.154907,488.972565 
	C911.483887,490.173279 940.873657,507.933624 956.774231,544.415466 
	C968.973755,572.405457 967.468628,600.962585 954.502808,628.604858 
	C943.911255,651.185364 926.664062,667.027283 902.591553,673.656372 
	C868.635376,683.007202 838.731873,675.261230 814.277222,649.135193 
	C813.837585,648.665466 813.325195,648.263794 811.929504,646.999329 
	C811.929504,656.438049 811.929504,664.969055 811.929504,674.000000 
M854.166199,521.380798 
	C846.766785,525.399780 838.339172,528.244202 832.158081,533.654968 
	C812.548706,550.820312 807.773010,573.349915 812.128235,598.175354 
	C818.448059,634.199524 856.538208,656.018311 890.903381,643.575562 
	C915.967224,634.500610 931.783997,610.662903 931.179138,582.371582 
	C930.710327,560.447632 922.590759,542.142883 904.208679,529.372742 
	C889.192627,518.941040 872.462769,517.413940 854.166199,521.380798 
z"/>
<path fill="#FD9000" opacity="1.000000" stroke="none" 
	d="
M1543.923828,493.114258 
	C1558.929810,498.100220 1571.287231,506.428040 1582.437378,517.798645 
	C1582.437378,515.901184 1582.437378,514.003784 1582.437378,512.106323 
	C1582.438110,484.951233 1582.294678,457.794647 1582.583496,430.642609 
	C1582.630981,426.184845 1583.679932,421.237610 1585.848877,417.414612 
	C1589.497681,410.983398 1597.785400,408.802765 1605.275269,411.013550 
	C1612.214355,413.061707 1616.938232,418.943695 1617.007080,426.635712 
	C1617.191772,447.291656 1617.137939,467.949982 1617.128052,488.607361 
	C1617.112427,521.092834 1617.820068,553.601868 1616.819702,586.057739 
	C1615.605103,625.465210 1596.540405,654.786926 1560.367310,670.152710 
	C1510.974976,691.133667 1452.439575,668.190796 1435.001343,614.617859 
	C1424.375366,581.973450 1428.226929,550.399048 1449.101685,522.650818 
	C1471.926636,492.310242 1507.165405,481.951355 1543.923828,493.114258 
M1575.999878,550.630920 
	C1575.227783,549.347290 1574.475586,548.051270 1573.680786,546.781799 
	C1555.974609,518.497437 1517.497192,510.510925 1490.040283,529.417175 
	C1454.890381,553.620667 1453.738770,609.317017 1487.855103,635.104919 
	C1513.110352,654.194885 1549.529785,650.221069 1568.951538,625.523987 
	C1586.985718,602.591064 1588.062744,577.457153 1575.999878,550.630920 
z"/>
<path fill="#FE0000" opacity="1.000000" stroke="none" 
	d="
M1300.302856,489.234375 
	C1318.308228,488.161713 1335.304321,489.820831 1351.250610,498.141388 
	C1370.852173,508.369171 1383.408081,524.481873 1389.524658,545.241760 
	C1392.594971,555.662292 1393.741211,566.761841 1394.745850,577.647644 
	C1395.784302,588.902283 1389.444946,595.125732 1378.084961,595.142151 
	C1337.585205,595.200867 1297.085449,595.168030 1256.585693,595.169800 
	C1254.599365,595.169861 1252.613037,595.169800 1250.116333,595.169800 
	C1252.487183,611.451111 1259.815552,624.409119 1272.368652,634.288086 
	C1295.478760,652.475220 1328.906372,652.978088 1354.082275,635.713440 
	C1362.442505,629.980286 1371.130859,630.132324 1377.347168,636.120667 
	C1384.175293,642.698364 1383.879395,651.611755 1376.248779,657.156433 
	C1357.912598,670.479919 1337.263916,677.184448 1314.641968,677.394958 
	C1294.889282,677.578857 1276.384277,672.820129 1259.672974,661.982056 
	C1238.627808,648.333252 1225.468384,629.182495 1220.671265,604.588440 
	C1215.511475,578.135559 1218.598999,552.827881 1233.110840,529.631348 
	C1247.310547,506.933838 1268.110352,494.164856 1294.390869,490.018341 
	C1296.200073,489.732910 1298.019897,489.514099 1300.302856,489.234375 
M1316.048706,518.222412 
	C1295.812622,517.087463 1277.594116,521.514282 1263.876709,537.686096 
	C1256.563354,546.308044 1252.147217,556.282227 1250.656982,567.706055 
	C1288.511841,567.706055 1325.747803,567.706055 1363.005737,567.706055 
	C1361.234375,545.425781 1346.271973,521.173645 1316.048706,518.222412 
z"/>
<path fill="#63E076" opacity="1.000000" stroke="none" 
	d="
M1009.899780,608.082825 
	C1004.003662,579.847656 1006.663696,553.265015 1022.230896,528.902039 
	C1037.958252,504.288422 1061.098145,491.679108 1089.835327,489.270081 
	C1106.452759,487.877045 1122.688354,489.689819 1138.009277,497.226135 
	C1158.523804,507.317108 1171.841309,523.588379 1178.050049,545.164795 
	C1181.188477,556.071289 1182.304077,567.656555 1183.400513,579.024902 
	C1184.352295,588.894043 1177.515503,595.124512 1166.829468,595.140381 
	C1126.342041,595.200500 1085.854614,595.167542 1045.367188,595.169373 
	C1043.393311,595.169434 1041.419434,595.169434 1038.015381,595.169434 
	C1040.133423,601.555420 1041.363159,607.434387 1043.937500,612.649658 
	C1055.138184,635.340454 1074.051270,646.611084 1098.934570,648.094116 
	C1115.470825,649.079651 1130.458252,644.273438 1144.061523,634.825562 
	C1151.533813,629.635742 1160.812622,630.656006 1166.741699,636.938110 
	C1172.770020,643.325378 1172.326660,651.784546 1165.235474,656.912170 
	C1146.016235,670.809692 1124.511353,677.647766 1100.724609,677.336060 
	C1083.385254,677.108826 1067.092407,673.010193 1052.094971,664.325378 
	C1030.241577,651.670288 1016.380981,632.857910 1009.899780,608.082825 
M1145.254028,545.345825 
	C1137.781494,530.997803 1126.226562,521.946777 1110.259033,519.027039 
	C1097.173584,516.634338 1084.206299,517.787354 1072.039917,523.143005 
	C1052.770630,531.625366 1042.923828,547.375916 1039.051514,567.702026 
	C1076.936401,567.702026 1114.353027,567.702026 1152.986694,567.702026 
	C1150.401855,560.039490 1148.029541,553.006775 1145.254028,545.345825 
z"/>
<path fill="#FE0000" opacity="1.000000" stroke="none" 
	d="
M476.058594,637.090942 
	C456.582123,665.726990 429.162170,677.704468 395.588654,677.380188 
	C373.721832,677.169006 353.929962,670.847229 336.855255,657.040833 
	C316.987061,640.975708 306.862549,619.558716 304.408783,594.519592 
	C302.267548,572.669922 305.443298,551.588928 316.899506,532.436890 
	C331.307556,508.350189 352.838226,494.396057 380.385071,490.275696 
	C410.231903,485.811310 437.766510,491.300140 461.017151,511.894562 
	C478.255402,527.163452 487.589966,546.692322 490.291931,569.274780 
	C493.158447,593.232605 489.540405,616.071838 476.058594,637.090942 
M360.913208,531.369263 
	C340.564453,548.206970 334.426117,570.248901 338.166992,595.475891 
	C344.851624,640.554688 396.003632,662.088013 433.159485,635.676514 
	C460.755676,616.060181 466.119873,569.481812 444.532104,541.443970 
	C424.730316,515.725647 385.150421,512.671875 360.913208,531.369263 
z"/>
<path fill="#5271FE" opacity="1.000000" stroke="none" 
	d="
M1802.823242,527.835876 
	C1813.988403,528.281677 1821.783081,535.724487 1821.770752,545.477417 
	C1821.758301,555.164185 1813.705200,562.702209 1802.957764,562.803467 
	C1790.132324,562.924377 1777.304932,562.835632 1764.478394,562.837646 
	C1762.678589,562.837952 1760.878784,562.837708 1758.377441,562.837708 
	C1758.377441,565.273438 1758.384155,567.204285 1758.376343,569.135071 
	C1758.321045,582.792603 1758.513916,596.457458 1758.113770,610.104919 
	C1757.862549,618.666992 1751.751343,624.619324 1743.331177,625.641602 
	C1734.563232,626.706116 1727.106812,622.232788 1724.674927,614.102844 
	C1723.928833,611.608521 1723.832642,608.855591 1723.814819,606.218567 
	C1723.730347,593.725769 1723.776123,581.232056 1723.775269,568.738708 
	C1723.775146,566.955811 1723.775269,565.172913 1723.775269,562.837646 
	C1717.721313,562.837646 1712.267456,562.838501 1706.813721,562.837402 
	C1697.485352,562.835632 1688.154907,562.954163 1678.829102,562.798584 
	C1667.797852,562.614685 1660.897461,555.643616 1660.899048,544.988464 
	C1660.900513,534.831055 1668.015137,527.943970 1678.852905,527.860413 
	C1691.845337,527.760315 1704.838989,527.833069 1717.832153,527.830994 
	C1719.616943,527.830688 1721.401733,527.830933 1723.775391,527.830933 
	C1723.775391,524.779724 1723.774048,522.331177 1723.775513,519.882690 
	C1723.783325,507.389404 1723.663696,494.894318 1723.840820,482.403442 
	C1723.982178,472.428467 1731.624512,464.873535 1741.157349,464.870728 
	C1751.112671,464.867798 1758.134644,471.817535 1758.298828,482.349335 
	C1758.504028,495.505859 1758.367188,508.667755 1758.377441,521.827332 
	C1758.378784,523.615662 1758.377563,525.404053 1758.377563,527.833801 
	C1773.458252,527.833801 1787.903809,527.833801 1802.823242,527.835876 
z"/>
<path fill="#1E2123" opacity="1.000000" stroke="none" 
	d="
M854.565735,521.264893 
	C872.462769,517.413940 889.192627,518.941040 904.208679,529.372742 
	C922.590759,542.142883 930.710327,560.447632 931.179138,582.371582 
	C931.783997,610.662903 915.967224,634.500610 890.903381,643.575562 
	C856.538208,656.018311 818.448059,634.199524 812.128235,598.175354 
	C807.773010,573.349915 812.548706,550.820312 832.158081,533.654968 
	C838.339172,528.244202 846.766785,525.399780 854.565735,521.264893 
z"/>
<path fill="#1F2122" opacity="1.000000" stroke="none" 
	d="
M1576.156494,550.968994 
	C1588.062744,577.457153 1586.985718,602.591064 1568.951538,625.523987 
	C1549.529785,650.221069 1513.110352,654.194885 1487.855103,635.104919 
	C1453.738770,609.317017 1454.890381,553.620667 1490.040283,529.417175 
	C1517.497192,510.510925 1555.974609,518.497437 1573.680786,546.781799 
	C1574.475586,548.051270 1575.227783,549.347290 1576.156494,550.968994 
z"/>
<path fill="#1F2122" opacity="1.000000" stroke="none" 
	d="
M1316.498535,518.269409 
	C1346.271973,521.173645 1361.234375,545.425781 1363.005737,567.706055 
	C1325.747803,567.706055 1288.511841,567.706055 1250.656982,567.706055 
	C1252.147217,556.282227 1256.563354,546.308044 1263.876709,537.686096 
	C1277.594116,521.514282 1295.812622,517.087463 1316.498535,518.269409 
z"/>
<path fill="#1E2222" opacity="1.000000" stroke="none" 
	d="
M1145.455566,545.659973 
	C1148.029541,553.006775 1150.401855,560.039490 1152.986694,567.702026 
	C1114.353027,567.702026 1076.936401,567.702026 1039.051514,567.702026 
	C1042.923828,547.375916 1052.770630,531.625366 1072.039917,523.143005 
	C1084.206299,517.787354 1097.173584,516.634338 1110.259033,519.027039 
	C1126.226562,521.946777 1137.781494,530.997803 1145.455566,545.659973 
z"/>
<path fill="#1F2122" opacity="1.000000" stroke="none" 
	d="
M361.213013,531.169373 
	C385.150421,512.671875 424.730316,515.725647 444.532104,541.443970 
	C466.119873,569.481812 460.755676,616.060181 433.159485,635.676514 
	C396.003632,662.088013 344.851624,640.554688 338.166992,595.475891 
	C334.426117,570.248901 340.564453,548.206970 361.213013,531.169373 
z"/>
</svg>
